# xmcd
#
# Track frame offsets: 
#        150
#        26720
#        49120
#        69942
#        88022
#        112872
#        132009
#        154232
#        175972
#        200418
#        222509
#        251244
#        283934
#        294159
#        303980
#
# Disc length: 4436 seconds
#
# Revision: 0
# Processed by: cddbd v1.5.2PL0 Copyright (c) Steve Scherf et al.
# Submitted via: ExactAudioCopyFreeDBPlugin 1.0
#
DISCID=db11520f
DTITLE=Le Freak - Millennium At Le Freak
DYEAR=1999
DGENRE=Comedy
TTITLE0=Boys R Us - Singin In My Mind [Klubbheads Remix]
TTITLE1=Triple S - Keep Your Head [Rollercoaster Remix]
TTITLE2=Camisra - Let Me Show You
TTITLE3=DJ Jean - The Launch [Yomanda Remix]
TTITLE4=Avant Garde - Get Down [Klubbheads Remix]
TTITLE5=Millennium Bug - Buggin [Millennium Remix]
TTITLE6=Gamba Freaks - Down Down Down [Da Klubb Kings Remix]
TTITLE7=DJ Disco - Reach 2 The Top
TTITLE8=Clubtone Feat Oliver Cheatman - Put A Little Love In Your Hear
TTITLE8=t
TTITLE9=The Beatshop - Read My Lips [Sex Me Up]
TTITLE10=The Ultimate Seduction - Get Down And Party
TTITLE11=Cab N Crew - Pure [Aviation]
TTITLE12=DJ Disco - Superfreak
TTITLE13=DJ Disco - Stamp Your Feet
TTITLE14=Klubbheads - Discohopping [Klubbheads Euromix]
EXTD=
EXTT0=
EXTT1=
EXTT2=
EXTT3=
EXTT4=
EXTT5=
EXTT6=
EXTT7=
EXTT8=
EXTT9=
EXTT10=
EXTT11=
EXTT12=
EXTT13=
EXTT14=
PLAYORDER=
